PathFileType	4	(X/Y/Z)	58_2_56_p1_0-396_filt_butterworth.trc
DataRate	CameraRate	NumFrames	NumMarkers	Units	OrigDataRate	OrigDataStartFrame	OrigNumFrames
54.0	54.0	6	27	m	54.0	297	396
Frame#	Time	RHip			RKnee			RAnkle			RBigToe			RSmallToe			RHeel			LHip			LKnee			LAnkle			LBigToe			LSmallToe			LHeel			Neck			Head			Nose			RShoulder			RElbow			RWrist			RThumb			RIndex			RPinky			LShoulder			LElbow			LWrist			LThumb			LIndex			LPinky			
		X1	Y1	Z1	X2	Y2	Z2	X3	Y3	Z3	X4	Y4	Z4	X5	Y5	Z5	X6	Y6	Z6	X7	Y7	Z7	X8	Y8	Z8	X9	Y9	Z9	X10	Y10	Z10	X11	Y11	Z11	X12	Y12	Z12	X13	Y13	Z13	X14	Y14	Z14	X15	Y15	Z15	X16	Y16	Z16	X17	Y17	Z17	X18	Y18	Z18	X19	Y19	Z19	X20	Y20	Z20	X21	Y21	Z21	X22	Y22	Z22	X23	Y23	Z23	X24	Y24	Z24	X25	Y25	Z25	X26	Y26	Z26	X27	Y27	Z27	
297	5.5	0.33953934030505817	0.5808334605045297	0.9839853696443202	0.33894011892328224	0.6156615294587219	1.452612362020345	0.34291415039593987	0.7556704700476837	1.8913117939048445	0.2844593502997374	0.5261774375147118	1.9448400860459165	0.36274217404369613	0.544637065216206	1.928977453984876	0.30837889410898306	0.858032053473953	1.9436193744487544	0.13809539925105158	0.5777706130803772	0.9796781145372816	0.13565793682873414	0.6360713481329567	1.459491839144549	0.11930343480392858	0.7473023945144205	1.885759995219542	0.12330743306860192	0.5400315089450279	1.9347034576050213	0.074631447096197	0.5953902832206321	1.9456098814656528	0.13835909853927666	0.8440478792638042	1.936525228444208	0.2493632927584394	0.3619165210058617	0.5518320179225769	0.27979901602161233	0.06368111648192896	0.33894104727850166	0.2636116988306812	0.20540574542648238	0.5193818706674515	0.3971039229697404	0.3364469308805692	0.5630578196902681	0.4297448724359217	0.5277200185267921	0.8334593504854362	0.41691747695014536	0.42869210608407504	1.073330196384752	0.3912372951364672	0.3005226399282353	1.1643301242985953	0.4248372321161079	0.3586832301120147	1.1938771176875211	0.4449645027194035	0.3998062311987257	1.1928111428955535	0.08815465628072222	0.3376204051646417	0.5275291357530179	0.05136401904211803	0.4775803506866011	0.7967487111712543	0.02629484050039386	0.5157791677588935	1.0362363763357698	0.06675440234014765	0.4701900322974706	1.1381890863458097	0.04520332059943934	0.4703900586902189	1.155479138055708	-0.004012575030131905	0.5480814721724159	1.1622270498401157
298	5.518518518518518	0.3384241188604532	0.5773755998590997	0.9832778373449076	0.3383917899787352	0.6151189565622112	1.4525947456240436	0.3430435757530674	0.7558266250525068	1.8919438202304713	0.2850314125275645	0.519392256405507	1.9420061610425077	0.362803926747427	0.5443439031621768	1.9290976833768663	0.30843077786448153	0.8584621664644209	1.94461687523654	0.1364136832256522	0.5829731392230988	0.9816189849250078	0.13404113074366306	0.6352717445821776	1.459387874706834	0.11914913360521706	0.7473013770906007	1.8846568641750872	0.1233345740064386	0.5399634397198281	1.934707245617584	0.07469617723043402	0.5952560272090729	1.9456334904875014	0.13853939336704793	0.8443625134236525	1.9370557196362215	0.2493875472464058	0.36185391253606186	0.5515296714513446	0.2781327372906617	0.06365116929846702	0.33898135878090857	0.262670109603666	0.2015793609299023	0.519462011753477	0.3973655033579945	0.3355997391334258	0.563027760769192	0.4300854252457745	0.5276084470647069	0.8335290038884333	0.416944886179803	0.4287469775756274	1.0733821657183966	0.3905255177544374	0.30033257228833843	1.162582030097631	0.4218570356641027	0.35625805526362836	1.1924549446812243	0.4435346717048138	0.405067110934171	1.1932538423327643	0.08993839871232451	0.3406660787560124	0.5285529508586495	0.04947559834153874	0.4830801882132174	0.797208888133163	0.026080004396579752	0.5160450325593027	1.037536703319396	0.06647244987718119	0.47057742049863094	1.1391843561282946	0.0441050984128347	0.47004469723726183	1.15549889827486	-0.005251124097659292	0.5480945489716464	1.1623883942257744
299	5.537037037037037	0.3368323009208975	0.5718905665131208	0.9815950660774976	0.3372141821341748	0.6145546888936377	1.4525944509281352	0.34335022754348893	0.7565262387009498	1.8936737677430528	0.28726937176457257	0.5182884638821788	1.9417493942379496	0.36296283356199677	0.5447172382312333	1.9294856202927249	0.3084651295906219	0.8591843430587955	1.9474907199798723	0.13526369978408037	0.5859684755243862	0.9833484761290208	0.13294178736097467	0.634608773926772	1.4591122444555464	0.11916167349779226	0.7472707254772766	1.8837282410373883	0.12336359851762752	0.5403168016471861	1.9347867886141552	0.0747146320902603	0.5953444466342834	1.945656939553843	0.13854987255283863	0.8448074324677302	1.9372693395553928	0.2494126899582496	0.3617667664832538	0.5510525091200045	0.2766281369961373	0.06378892607406367	0.33910392672851547	0.2615024735405085	0.19809143031208665	0.5195359138236096	0.39825553208561243	0.33224958477520955	0.563021488620342	0.4298446791141489	0.522590917351999	0.8332578263601411	0.4169720869511033	0.4288065716101086	1.0733872049025497	0.3882829308747373	0.29925190811596225	1.1618385178829473	0.4181324515949808	0.35217474839456325	1.1913143922735216	0.4415462764882122	0.4089071509924305	1.1937837630875978	0.09139480362813432	0.34264802194907146	0.5310234365548846	0.04878933135088401	0.4871732347223097	0.7975159153131313	0.025912230838406797	0.5164161982079349	1.0391165537383151	0.06638411100616025	0.4711781774632231	1.1396080757454667	0.04337263620606939	0.4701218905158685	1.1555144668308266	-0.005683996122210083	0.5482943304290575	1.1626411195816044
300	5.555555555555555	0.3355860448370004	0.5673435602935166	0.9796005171699645	0.3356955772701157	0.614378712690624	1.4526027493604343	0.34374392792329655	0.7575883996075081	1.8960035732803937	0.2887838066929067	0.5232659948134519	1.9442593935842847	0.3632618535712484	0.5460467764119861	1.9300622563871908	0.3085740916124002	0.860755097660496	1.9519320103347184	0.1349138412519566	0.5858302243481749	0.9836075990577335	0.13264762721992174	0.6342460704467018	1.458423635286242	0.1193138886450581	0.7472350900633612	1.8832518078060378	0.12345784536981137	0.5409440230097121	1.9348839610659208	0.07466714179179172	0.5957777021680654	1.945672393776595	0.13839782512535428	0.845226089753485	1.937385238302042	0.24944444357315426	0.3616948171621249	0.5509308120807624	0.2759004968645782	0.06394486232433119	0.33906672153153	0.26066061714252986	0.19523463660879758	0.519571344371554	0.3995122832742275	0.3272858080844808	0.5630219172319435	0.4294299859114918	0.5147403904442664	0.8326069957534946	0.4169815593361551	0.4288164641064872	1.0733217643904518	0.3851517642910428	0.2961741124742382	1.1613640013444715	0.414086595930509	0.34720106901285186	1.1903294391969759	0.43954628862097467	0.41012357373566294	1.1940063208081018	0.09173925879054903	0.3420284721558282	0.534239352129276	0.05032478755632175	0.4885234588305215	0.7975262576199187	0.025765329152866424	0.5167399966034708	1.0411302236641808	0.0664028711570161	0.4719864270750342	1.139802264833992	0.04225358483599581	0.4702879626873483	1.1554845444220845	-0.005712045926157245	0.5485553974126659	1.1628753022415803
301	5.574074074074074	0.3350965539190978	0.5655229533345182	0.978355061888574	0.334623518287456	0.6145800532819249	1.4526078844572115	0.34402115120807275	0.7583784817885096	1.8976857235828162	0.2883359813707895	0.5299818266144303	1.9474766360276319	0.3634967141304294	0.5472323944065518	1.9304852866910676	0.30878751324289705	0.8625477066894753	1.9558756801507968	0.1349540890462912	0.5845994575759583	0.9828630525637395	0.13272074930878794	0.6339402504858513	1.4576836656671681	0.1195585169429844	0.7472198697970922	1.8832038696686912	0.1235812129374326	0.5412967577935947	1.9346903929469068	0.07455080793744706	0.5962993054834376	1.9456747178844955	0.1383297756939567	0.8453309367205195	1.9373063522194092	0.24949022386432745	0.3616746114288907	0.5514540897256517	0.2757664714557825	0.06395421016936917	0.3389046327524431	0.2602885086750213	0.19192805677739042	0.5195689253437016	0.4004138802582135	0.3236264488586893	0.5630313734850672	0.42940938477238066	0.5092527392422832	0.8318979225445473	0.4169301253059415	0.42879097416288237	1.0731743720032219	0.3828785626078302	0.2919581958289791	1.1606790979936168	0.41074921449675283	0.3432591109418761	1.1891704757558927	0.438271239510838	0.4097236180822774	1.193872053287927	0.09139093474351635	0.3403795502055948	0.5367965994278275	0.05308844736418436	0.4883359947556737	0.7973683391025775	0.02551591468154887	0.5169227939020626	1.0431581248906108	0.06636096723289882	0.4727565501240103	1.1403057932806289	0.04067468851115465	0.4701935218806197	1.1557000668147173	-0.005752824405802917	0.5486540098497168	1.1629731734156723
302	5.592592592592593	0.33509302306473177	0.5656536402871264	0.9781528950415838	0.33429093894202483	0.6148556318949239	1.4526099953635658	0.34410642481624043	0.758580568487472	1.8982105595362886	0.2871512468565823	0.5341805223575886	1.9493191206373273	0.3635155317309694	0.5473548176737792	1.930531627094592	0.3089768087926288	0.8633710913135303	1.9576646986142663	0.1350388295022312	0.5843373692324318	0.9824221303393106	0.1328263643135126	0.6334781426206125	1.4581493545330209	0.11975625087097781	0.7472268303474285	1.8833451446982743	0.12371826688174405	0.5410713331390705	1.9337789647382235	0.0743949822766584	0.5965793901751839	1.945666057639468	0.13841566868376895	0.8453944757845091	1.937179393807732	0.24952253693369603	0.36169154728840164	0.5520933752372594	0.2757939414712958	0.0638452132613987	0.33879373067739044	0.2602026761528784	0.18822008140842636	0.5195633246717113	0.4006851221151652	0.3224718127738676	0.5630546052147425	0.430341524969749	0.509069469627142	0.8317390224121709	0.41679017246814776	0.42875633821825954	1.0730769375944185	0.38217696777643395	0.28885787661194545	1.16000260605964	0.40903995653123926	0.34144187259491576	1.1882058685988135	0.43790139890970115	0.4090767102410294	1.1936843915045485	0.09109136709968599	0.33958914080358477	0.5379724826350911	0.05514127295625763	0.48801577861225953	0.7972367438442882	0.02526563099048012	0.5170596489760085	1.0443661880011865	0.0661572442218027	0.4733378745742071	1.1414743173626787	0.039536025332334274	0.47015720776581504	1.1568030684281376	-0.005817294370073588	0.5485019446389079	1.1630078533915613
